<svg xmlns="http://www.w3.org/2000/svg" viewBox="0 0 880 500" font-family="'Segoe UI', Arial, sans-serif">
  <rect width="100%" height="100%" fill="white"/>

  <!-- Title -->
  <text x="440" y="28" text-anchor="middle" fill="#1a1a1a" font-size="20" font-weight="bold">How Resize Creates Empty Slots</text>
  <text x="440" y="48" text-anchor="middle" fill="#555" font-size="12">Inserting into a probing table with threshold = 0.75. Watch what happens when resize fires.</text>

  <!-- ===== STEP 1: Table filling up ===== -->
  <rect x="30" y="68" width="820" height="100" rx="8" fill="#fff3e0" stroke="#e67e22" stroke-width="1.5"/>
  <text x="50" y="88" fill="#e65100" font-size="13" font-weight="bold">Step 1: Table is filling up (capacity = 7, threshold = 0.75)</text>

  <!-- 7 slots, 5 filled -->
  <text x="50" y="112" fill="#888" font-size="10">index:</text>
  <text x="160" y="112" text-anchor="middle" fill="#888" font-size="10">0</text>
  <text x="250" y="112" text-anchor="middle" fill="#888" font-size="10">1</text>
  <text x="340" y="112" text-anchor="middle" fill="#888" font-size="10">2</text>
  <text x="430" y="112" text-anchor="middle" fill="#888" font-size="10">3</text>
  <text x="520" y="112" text-anchor="middle" fill="#888" font-size="10">4</text>
  <text x="610" y="112" text-anchor="middle" fill="#888" font-size="10">5</text>
  <text x="700" y="112" text-anchor="middle" fill="#888" font-size="10">6</text>

  <rect x="120" y="118" width="80" height="32" rx="4" fill="#2ecc71" stroke="#27ae60" stroke-width="1.5"/>
  <text x="160" y="139" text-anchor="middle" fill="#fff" font-size="11" font-weight="bold">Alice</text>
  <rect x="210" y="118" width="80" height="32" rx="4" fill="#2ecc71" stroke="#27ae60" stroke-width="1.5"/>
  <text x="250" y="139" text-anchor="middle" fill="#fff" font-size="11" font-weight="bold">Bob</text>
  <rect x="300" y="118" width="80" height="32" rx="4" fill="#ecf0f1" stroke="#bdc3c7" stroke-width="1"/>
  <text x="340" y="139" text-anchor="middle" fill="#bbb" font-size="10">[empty]</text>
  <rect x="390" y="118" width="80" height="32" rx="4" fill="#2ecc71" stroke="#27ae60" stroke-width="1.5"/>
  <text x="430" y="139" text-anchor="middle" fill="#fff" font-size="11" font-weight="bold">Carol</text>
  <rect x="480" y="118" width="80" height="32" rx="4" fill="#2ecc71" stroke="#27ae60" stroke-width="1.5"/>
  <text x="520" y="139" text-anchor="middle" fill="#fff" font-size="11" font-weight="bold">Dave</text>
  <rect x="570" y="118" width="80" height="32" rx="4" fill="#2ecc71" stroke="#27ae60" stroke-width="1.5"/>
  <text x="610" y="139" text-anchor="middle" fill="#fff" font-size="11" font-weight="bold">Eve</text>
  <rect x="660" y="118" width="80" height="32" rx="4" fill="#ecf0f1" stroke="#bdc3c7" stroke-width="1"/>
  <text x="700" y="139" text-anchor="middle" fill="#bbb" font-size="10">[empty]</text>

  <text x="780" y="130" fill="#e65100" font-size="12" font-weight="bold">5/7</text>
  <text x="780" y="146" fill="#e65100" font-size="11">LF = 0.71</text>

  <!-- ===== STEP 2: Insert triggers resize ===== -->
  <rect x="30" y="180" width="820" height="56" rx="8" fill="#fce4ec" stroke="#e74c3c" stroke-width="1.5"/>
  <text x="50" y="200" fill="#c62828" font-size="13" font-weight="bold">Step 2: Insert "Frank" -- load factor would become 6/7 = 0.86 &gt; 0.75</text>
  <text x="50" y="222" fill="#c62828" font-size="12">RESIZE fires! Allocate new table with capacity = 17 (next prime after 7 x 2)</text>

  <!-- ===== STEP 3: After resize ===== -->
  <rect x="30" y="248" width="820" height="120" rx="8" fill="#e8f5e9" stroke="#27ae60" stroke-width="1.5"/>
  <text x="50" y="268" fill="#1b5e20" font-size="13" font-weight="bold">Step 3: After resize -- all 6 entries rehashed into 17 slots</text>

  <!-- 17 slots shown as small boxes -->
  <text x="50" y="292" fill="#888" font-size="9">index:</text>
  <!-- Slots 0-16, some filled some empty -->
  <!-- Using smaller boxes: each 42px wide, starting at x=90 -->
  <rect x="90"  y="298" width="38" height="26" rx="3" fill="#ecf0f1" stroke="#bdc3c7" stroke-width="1"/>
  <text x="109" y="315" text-anchor="middle" fill="#bbb" font-size="8">0</text>
  <rect x="132" y="298" width="38" height="26" rx="3" fill="#2ecc71" stroke="#27ae60" stroke-width="1"/>
  <text x="151" y="315" text-anchor="middle" fill="#fff" font-size="8">1</text>
  <rect x="174" y="298" width="38" height="26" rx="3" fill="#ecf0f1" stroke="#bdc3c7" stroke-width="1"/>
  <text x="193" y="315" text-anchor="middle" fill="#bbb" font-size="8">2</text>
  <rect x="216" y="298" width="38" height="26" rx="3" fill="#ecf0f1" stroke="#bdc3c7" stroke-width="1"/>
  <text x="235" y="315" text-anchor="middle" fill="#bbb" font-size="8">3</text>
  <rect x="258" y="298" width="38" height="26" rx="3" fill="#2ecc71" stroke="#27ae60" stroke-width="1"/>
  <text x="277" y="315" text-anchor="middle" fill="#fff" font-size="8">4</text>
  <rect x="300" y="298" width="38" height="26" rx="3" fill="#ecf0f1" stroke="#bdc3c7" stroke-width="1"/>
  <text x="319" y="315" text-anchor="middle" fill="#bbb" font-size="8">5</text>
  <rect x="342" y="298" width="38" height="26" rx="3" fill="#ecf0f1" stroke="#bdc3c7" stroke-width="1"/>
  <text x="361" y="315" text-anchor="middle" fill="#bbb" font-size="8">6</text>
  <rect x="384" y="298" width="38" height="26" rx="3" fill="#2ecc71" stroke="#27ae60" stroke-width="1"/>
  <text x="403" y="315" text-anchor="middle" fill="#fff" font-size="8">7</text>
  <rect x="426" y="298" width="38" height="26" rx="3" fill="#ecf0f1" stroke="#bdc3c7" stroke-width="1"/>
  <text x="445" y="315" text-anchor="middle" fill="#bbb" font-size="8">8</text>
  <rect x="468" y="298" width="38" height="26" rx="3" fill="#ecf0f1" stroke="#bdc3c7" stroke-width="1"/>
  <text x="487" y="315" text-anchor="middle" fill="#bbb" font-size="8">9</text>
  <rect x="510" y="298" width="38" height="26" rx="3" fill="#2ecc71" stroke="#27ae60" stroke-width="1"/>
  <text x="529" y="315" text-anchor="middle" fill="#fff" font-size="8">10</text>
  <rect x="552" y="298" width="38" height="26" rx="3" fill="#ecf0f1" stroke="#bdc3c7" stroke-width="1"/>
  <text x="571" y="315" text-anchor="middle" fill="#bbb" font-size="8">11</text>
  <rect x="594" y="298" width="38" height="26" rx="3" fill="#2ecc71" stroke="#27ae60" stroke-width="1"/>
  <text x="613" y="315" text-anchor="middle" fill="#fff" font-size="8">12</text>
  <rect x="636" y="298" width="38" height="26" rx="3" fill="#ecf0f1" stroke="#bdc3c7" stroke-width="1"/>
  <text x="655" y="315" text-anchor="middle" fill="#bbb" font-size="8">13</text>
  <rect x="678" y="298" width="38" height="26" rx="3" fill="#ecf0f1" stroke="#bdc3c7" stroke-width="1"/>
  <text x="697" y="315" text-anchor="middle" fill="#bbb" font-size="8">14</text>
  <rect x="720" y="298" width="38" height="26" rx="3" fill="#2ecc71" stroke="#27ae60" stroke-width="1"/>
  <text x="739" y="315" text-anchor="middle" fill="#fff" font-size="8">15</text>
  <rect x="762" y="298" width="38" height="26" rx="3" fill="#ecf0f1" stroke="#bdc3c7" stroke-width="1"/>
  <text x="781" y="315" text-anchor="middle" fill="#bbb" font-size="8">16</text>

  <text x="50" y="348" fill="#1b5e20" font-size="12">6 entries in 17 slots:</text>
  <text x="210" y="348" fill="#1b5e20" font-size="12" font-weight="bold">LF = 6/17 = 0.35</text>
  <text x="410" y="348" fill="#888" font-size="12">11 empty slots (65% empty) -- that's where the "wasted" memory is</text>

  <!-- ===== STEP 4: Before/After comparison bars ===== -->
  <rect x="30" y="380" width="820" height="110" rx="8" fill="#f4f6f7" stroke="#bdc3c7" stroke-width="1.5"/>
  <text x="440" y="400" text-anchor="middle" fill="#333" font-size="13" font-weight="bold">Before vs After: same 6 entries, different table sizes</text>

  <!-- Before bar: 7 slots, 5 filled -->
  <text x="60" y="430" fill="#555" font-size="11" font-weight="bold">Before:</text>
  <rect x="140" y="416" width="250" height="24" rx="4" fill="#2ecc71" stroke="#27ae60" stroke-width="1"/>
  <rect x="390" y="416" width="70" height="24" rx="4" fill="#ecf0f1" stroke="#bdc3c7" stroke-width="1"/>
  <text x="265" y="433" text-anchor="middle" fill="#fff" font-size="11">5 entries</text>
  <text x="425" y="433" text-anchor="middle" fill="#bbb" font-size="9">2 empty</text>
  <text x="490" y="433" fill="#555" font-size="11">cap=7, LF=0.71</text>

  <!-- After bar: 17 slots, 6 filled -->
  <text x="60" y="468" fill="#555" font-size="11" font-weight="bold">After:</text>
  <rect x="140" y="454" width="115" height="24" rx="4" fill="#2ecc71" stroke="#27ae60" stroke-width="1"/>
  <rect x="255" y="454" width="207" height="24" rx="4" fill="#f8d7da" stroke="#e74c3c" stroke-width="1"/>
  <text x="198" y="471" text-anchor="middle" fill="#fff" font-size="11">6 entries</text>
  <text x="358" y="471" text-anchor="middle" fill="#c62828" font-size="10">11 empty slots</text>
  <text x="490" y="471" fill="#555" font-size="11">cap=17, LF=0.35</text>
</svg>
